# xmcd
#
# Track frame offsets: 
#        150
#        11960
#        25412
#        36930
#        47650
#        60277
#        72922
#        86360
#        99507
#        110170
#        123495
#        136922
#        149552
#        163125
#        182775
#        197482
#        210267
#        219975
#
# Disc length: 3098 seconds
#
# Revision: 2
# Processed by: cddbd v1.5.2PL0 Copyright (c) Steve Scherf et al.
# Submitted via: ExactAudioCopy v0.99pb5
#
DISCID=040c1812
DTITLE=Etta James - At Her Best
DYEAR=1982
DGENRE=Bass
TTITLE0=I'd Rather Go Blind
TTITLE1=At Last
TTITLE2=Stop the Wedding
TTITLE3=Tell Mama (Tell Daddy)
TTITLE4=Dance with Me Henry
TTITLE5=Something's Got a Hold On Me
TTITLE6=Trust in Me
TTITLE7=All I Could Was Cry
TTITLE8=Steal Away
TTITLE9=Pushover
TTITLE10=Fool That I Am
TTITLE11=Security
TTITLE12=My Dearest Darling
TTITLE13=Baby, What You Want Me to Do
TTITLE14=A Sunday Kind of Love
TTITLE15=Spoonful
TTITLE16=Waiting For Charlie to Come Home
TTITLE17=Next Door to the Blues
EXTD=
EXTT0=
EXTT1=
EXTT2=
EXTT3=
EXTT4=with Richard Berry
EXTT5=
EXTT6=
EXTT7=
EXTT8=
EXTT9=
EXTT10=
EXTT11=
EXTT12=
EXTT13=
EXTT14=
EXTT15=with Harvey Fuqua
EXTT16=
EXTT17=
PLAYORDER=
